<?xml version="1.0" encoding="UTF-8"?>
<svg id="Layer_1" data-name="Layer 1" xmlns="http://www.w3.org/2000/svg" version="1.1" viewBox="0 0 246.8 61.7">
  <defs>
    <style>
      .cls-1 {
        fill: #000;
        stroke-width: 0px;
      }
    </style>
  </defs>
  <path class="cls-1" d="M19.2,32c0,2.7.4,5.2,1.2,7.3.8,2.2,1.9,4,3.4,5.5s3.1,2.6,5.1,3.4c2,.8,4.1,1.2,6.4,1.2s2.7-.3,4-.8c1.3-.5,2.4-1.2,3.5-2.1s2.1-1.8,2.9-2.9c.9-1.1,1.6-2.1,2.1-3.2l2.8,1.8c-.8,1.3-1.7,2.6-2.8,3.8-1.1,1.2-2.4,2.3-3.8,3.2-1.4.9-3.1,1.7-4.9,2.2-1.8.5-3.8.8-6,.8-3.2,0-6.1-.5-8.8-1.6-2.6-1.1-4.9-2.5-6.8-4.4-1.9-1.8-3.3-4-4.4-6.4-1-2.5-1.5-5-1.5-7.8s.2-3.6.7-5.3,1.1-3.3,2-4.9c.9-1.5,2-2.9,3.3-4.2,1.3-1.3,2.7-2.3,4.3-3.3s3.4-1.6,5.3-2.1c1.9-.5,4-.7,6.1-.7s4,.3,5.7.8c1.7.6,3.3,1.3,4.8,2.2,1.4.9,2.7,2,3.8,3.2,1.1,1.2,2.1,2.5,2.9,3.8l-2.8,1.9c-1.6-3.1-3.4-5.4-5.4-6.9-2-1.5-4.3-2.2-6.9-2.2s-4.3.4-6.3,1.2c-2,.8-3.7,2-5.1,3.5-1.5,1.5-2.6,3.4-3.4,5.6-.8,2.2-1.2,4.6-1.2,7.4Z"/>
  <path class="cls-1" d="M86.6,12.5v2.5h-20.5v13.9h13.7v2.5h-13.7v17.4h20.5v2.5h-27V12.5h27Z"/>
  <path class="cls-1" d="M121.3,12.5v2.5h-20.5v13.9h13.7v2.5h-13.7v17.4h20.5v2.5h-27V12.5h27Z"/>
  <path class="cls-1" d="M135.1,32c0,2.7.4,5.2,1.2,7.3.8,2.2,1.9,4,3.4,5.5s3.1,2.6,5.1,3.4,4.1,1.2,6.4,1.2,2.7-.3,4-.8,2.4-1.2,3.5-2.1,2.1-1.8,2.9-2.9c.9-1.1,1.6-2.1,2.1-3.2l2.8,1.8c-.8,1.3-1.7,2.6-2.8,3.8s-2.4,2.3-3.8,3.2c-1.4.9-3.1,1.7-4.9,2.2-1.8.5-3.8.8-6,.8-3.2,0-6.1-.5-8.8-1.6-2.6-1.1-4.9-2.5-6.8-4.4-1.9-1.8-3.3-4-4.4-6.4-1-2.5-1.5-5-1.5-7.8s.2-3.6.7-5.3,1.1-3.3,2-4.9c.9-1.5,2-2.9,3.3-4.2,1.3-1.3,2.7-2.3,4.3-3.3s3.4-1.6,5.3-2.1,4-.7,6.1-.7,4,.3,5.7.8,3.3,1.3,4.8,2.2c1.4.9,2.7,2,3.8,3.2s2.1,2.5,2.9,3.8l-2.8,1.9c-1.6-3.1-3.4-5.4-5.4-6.9-2-1.5-4.3-2.2-6.9-2.2s-4.3.4-6.3,1.2-3.7,2-5.1,3.5-2.6,3.4-3.4,5.6c-.8,2.2-1.2,4.6-1.2,7.4Z"/>
  <path class="cls-1" d="M202.5,12.5v2.5h-20.5v13.9h13.7v2.5h-13.7v17.4h20.5v2.5h-27V12.5h27Z"/>
  <path class="cls-1" d="M237.2,12.5v2.5h-20.5v13.9h13.7v2.5h-13.7v17.4h20.5v2.5h-27V12.5h27Z"/>
</svg>